<?xml version="1.0" encoding="UTF-8"?>
<svg width="170px" height="14px" viewBox="0 0 170 14" version="1.1" xmlns="http://www.w3.org/2000/svg" xmlns:xlink="http://www.w3.org/1999/xlink">
    <!-- Generator: Sketch 49.3 (51167) - http://www.bohemiancoding.com/sketch -->
    <title>TMP Logo</title>
    <desc>Created with Sketch.</desc>
    <defs>
        <polygon id="path-1" points="0.0841361789 0.339386095 12.3776931 0.339386095 12.3776931 13.9326923 0.0841361789 13.9326923"></polygon>
    </defs>
    <g id="Symbols" stroke="none" stroke-width="1" fill="none" fill-rule="evenodd">
        <g id="Onboarding-Header" transform="translate(-300.000000, -21.000000)">
            <g id="TMP-Logo" transform="translate(300.000000, 21.000000)">
                <g id="Page-1">
                    <polygon id="Fill-1" fill="#FFFFFF" points="76.7987492 8.39260543 71.9230769 2.51375518 71.9230769 13.1131222 72.9894309 13.1131222 72.9894309 5.39830648 76.7987492 10.0832663 80.6073588 5.39830648 80.6073588 13.1131222 81.7307692 13.1131222 81.7307692 2.45871041"></polygon>
                    <polygon id="Fill-2" fill="#FFFFFF" points="44.9233928 8.39260543 40.0480769 2.51375518 40.0480769 13.1131222 41.114508 13.1131222 41.114508 5.39830648 44.9233928 10.0832663 48.7322776 5.39830648 48.7322776 13.1131222 49.8557692 13.1131222 49.8557692 2.45871041"></polygon>
                    <polygon id="Fill-3" fill="#FFFFFF" points="48.6878392 0.819570136 44.9519231 5.6208346 41.216007 0.819570136 38.4134615 0.819570136 38.4134615 13.1131222 39.4226143 13.1131222 39.4226143 1.69311191 40.3945712 1.69311191 44.9519231 7.34930335 49.56559 1.69311191 50.5371994 1.69311191 50.5371994 13.1131222 51.4903846 13.1131222 51.4903846 0.819570136"></polygon>
                    <polygon id="Fill-4" fill="#FFFFFF" points="80.5633855 0.819570136 76.8272707 5.6208346 73.0904607 0.819570136 70.2884615 0.819570136 70.2884615 13.1131222 71.2976679 13.1131222 71.2976679 1.69311191 72.268286 1.69311191 76.8272707 7.34930335 81.441183 1.69311191 82.412844 1.69311191 82.412844 13.1131222 83.3653846 13.1131222 83.3653846 0.819570136"></polygon>
                    <g id="Group-30">
                        <path d="M60.5547947,2.13977574 C57.8824776,2.13977574 55.7053028,4.39079867 55.7053028,7.15375873 C55.7053028,9.91779053 57.8824776,12.1688135 60.5547947,12.1688135 C63.2098354,12.1688135 65.3870102,9.91779053 65.3870102,7.15375873 C65.3870102,4.39079867 63.2098354,2.13977574 60.5547947,2.13977574 M60.5375183,11.1620871 C58.3948963,11.1620871 56.660689,9.3690568 56.660689,7.15375873 C56.660689,4.9395324 58.3948963,3.14578757 60.5375183,3.14578757 C62.6787581,3.14578757 64.414002,4.9395324 64.414002,7.15375873 C64.414002,9.3690568 62.6787581,11.1620871 60.5375183,11.1620871" id="Fill-5" fill="#FFFFFF"></path>
                        <path d="M60.5547947,0.455384689 C56.9792663,0.455384689 54.0761362,3.45698676 54.0761362,7.13557478 C54.0761362,10.8327397 56.9792663,13.8154076 60.5547947,13.8154076 C64.1130467,13.8154076 67.0158313,10.8327397 67.0158313,7.13557478 C67.0158313,3.45698676 64.1130467,0.455384689 60.5547947,0.455384689 M60.5547947,12.8822745 C57.492376,12.8822745 54.9969695,10.3197308 54.9969695,7.15379445 C54.9969695,3.98750081 57.492376,1.40709475 60.5547947,1.40709475 C63.5995915,1.40709475 66.0953435,3.98750081 66.0953435,7.15379445 C66.0953435,10.3197308 63.5995915,12.8822745 60.5547947,12.8822745" id="Fill-7" fill="#FFFFFF"></path>
                        <polygon id="Fill-9" fill="#FFFFFF" points="6.45799593 3.02503757 6.45799593 13.6567536 3.98504878 13.6567536 3.98504878 3.02503757 6.91056911e-05 3.02503757 6.91056911e-05 0.615039053 10.4429756 0.615039053 10.4429756 3.02503757"></polygon>
                        <polygon id="Fill-11" fill="#FFFFFF" points="20.7311199 13.656825 20.7311199 8.24843964 15.2337622 8.24843964 15.2337622 13.656825 12.7787825 13.656825 12.7787825 0.615110503 15.2337622 0.615110503 15.2337622 5.8573753 20.7311199 5.8573753 20.7311199 0.615110503 23.2040671 0.615110503 23.2040671 13.656825"></polygon>
                        <polygon id="Fill-13" fill="#FFFFFF" points="26.6960467 13.656825 26.6960467 0.615110503 34.5951728 0.615110503 34.5951728 3.0065321 29.1510264 3.0065321 29.1510264 5.98669926 34.0792988 5.98669926 34.0792988 8.24843964 29.1510264 8.24843964 29.1510264 11.2654034 34.5951728 11.2654034 34.5951728 13.656825"></polygon>
                        <path d="M89.7062358,8.74572959 L89.7062358,13.656825 L87.2512561,13.656825 L87.2512561,0.615110503 L91.9659919,0.615110503 C94.456561,0.615110503 96.1109512,2.32597367 96.1109512,4.68024142 C96.1109512,7.05308609 94.456561,8.74572959 91.9659919,8.74572959 L89.7062358,8.74572959 Z M91.6633089,6.55651065 C92.8909715,6.55651065 93.6380041,5.8205787 93.6380041,4.69881834 C93.6380041,3.53990414 92.8909715,2.82254911 91.6633089,2.82254911 L89.7242033,2.82254911 L89.7242033,6.55651065 L91.6633089,6.55651065 Z" id="Fill-15" fill="#FFFFFF"></path>
                        <path d="M102.342661,8.63494682 L101.061787,8.63494682 L101.061787,13.6567893 L98.5888394,13.6567893 L98.5888394,0.615074778 L103.516766,0.615074778 C105.971746,0.615074778 107.537681,2.36273454 107.537681,4.62518942 C107.537681,6.44608513 106.505587,7.82613617 104.851197,8.32271161 L107.555303,13.6567893 L104.815608,13.6567893 L102.342661,8.63494682 Z M103.054449,6.44608513 C104.299734,6.44608513 105.028799,5.71051043 105.028799,4.64376635 C105.028799,3.53986842 104.299734,2.82251339 103.054449,2.82251339 L101.061787,2.82251339 L101.061787,6.44608513 L103.054449,6.44608513 Z" id="Fill-17" fill="#FFFFFF"></path>
                        <path d="M115.95814,0.339386095 C119.391657,0.339386095 122.451657,2.93301036 122.451657,7.14532766 C122.451657,11.339068 119.391657,13.9326923 115.95814,13.9326923 C112.542246,13.9326923 109.482246,11.339068 109.482246,7.14532766 C109.482246,2.93301036 112.542246,0.339386095 115.95814,0.339386095 M115.95814,11.4680348 C117.915213,11.4680348 119.90753,10.0694068 119.90753,7.12675074 C119.90753,4.18373743 117.915213,2.78582396 115.95814,2.78582396 C114.018689,2.78582396 112.026372,4.18373743 112.026372,7.12675074 C112.026372,10.0694068 114.018689,11.4680348 115.95814,11.4680348" id="Fill-19" fill="#FFFFFF"></path>
                        <path d="M124.111644,8.81900126 L126.477823,8.81900126 L126.477823,9.57315288 C126.495791,10.9160501 127.225201,11.5226581 128.22136,11.5226581 C129.253108,11.5226581 129.893717,10.7688637 129.893717,9.62852641 L129.893717,0.615146228 L132.348697,0.615146228 L132.348697,9.62852641 C132.348697,11.9827942 130.694307,13.9326566 128.239327,13.9326566 C125.748758,13.9326566 124.111644,12.2403703 124.111644,9.68318543 L124.111644,8.81900126 Z" id="Fill-21" fill="#FFFFFF"></path>
                        <polygon id="Fill-23" fill="#FFFFFF" points="135.716183 13.656825 135.716183 0.615110503 143.615309 0.615110503 143.615309 3.0065321 138.171163 3.0065321 138.171163 5.98669926 143.099435 5.98669926 143.099435 8.24843964 138.171163 8.24843964 138.171163 11.2654034 143.615309 11.2654034 143.615309 13.656825"></polygon>
                        <g id="Group-27" transform="translate(145.813008, 0.000000)">
                            <mask id="mask-2" fill="white">
                                <use xlink:href="#path-1"></use>
                            </mask>
                            <g id="Clip-26"></g>
                            <path d="M0.0841361789,7.14525621 C0.0841361789,2.98795518 3.12651423,0.339314645 6.50681911,0.339314645 C9.99354675,0.339314645 11.7906402,2.54675325 12.2885467,4.66202175 L9.9759248,5.41617337 C9.67324187,4.16508905 8.69505081,2.78575251 6.50681911,2.78575251 C4.62057927,2.78575251 2.6282622,4.18366598 2.6282622,7.14525621 C2.6282622,9.92286346 4.5141565,11.4493864 6.54206301,11.4493864 C8.69505081,11.4493864 9.74442073,9.99609941 10.0826931,8.78216893 L12.3776931,9.49952396 C11.897063,11.5044027 10.0826931,13.9329781 6.54206301,13.9329781 C3.01974593,13.9329781 0.0841361789,11.3022 0.0841361789,7.14525621" id="Fill-25" fill="#FFFFFF" mask="url(#mask-2)"></path>
                        </g>
                        <polygon id="Fill-28" fill="#FFFFFF" points="166.006278 3.02503757 166.006278 13.6567536 163.533677 13.6567536 163.533677 3.02503757 159.548352 3.02503757 159.548352 0.615039053 169.991604 0.615039053 169.991604 3.02503757"></polygon>
                    </g>
                </g>
            </g>
        </g>
    </g>
</svg>